<?xml version="1.0" encoding="utf-8"?>
<!-- Generator: Adobe Illustrator 21.0.2, SVG Export Plug-In . SVG Version: 6.00 Build 0)  -->
<svg version="1.1" id="レイヤー_1" xmlns="http://www.w3.org/2000/svg" xmlns:xlink="http://www.w3.org/1999/xlink" x="0px"
	 y="0px" viewBox="0 0 200 200" style="enable-background:new 0 0 200 200;" xml:space="preserve" width="200" height="200">
<style type="text/css">
	.st0{fill:#F3C51C;}
	.st1{fill:#FFFFFF;}
	.st2{fill:#040000;}
	.st3{fill:#D61442;}
</style>
<path class="st0" d="M187,113.8c-0.5,48.2-40.1,86.8-88.3,86.1c-48.2-0.5-86.8-40.1-86.1-88.3c0.5-48.2,40.1-86.8,88.3-86.1
	C149,26.1,187.5,65.6,187,113.8"/>
<path class="st1" d="M57.4,67.3c-0.1,12.2-10.1,21.9-22.4,21.8S13.2,79,13.3,66.7s10.1-21.9,22.4-21.8S57.7,55.1,57.4,67.3"/>
<path class="st2" d="M47.7,74.5c-0.1,5.5-4.5,9.7-9.9,9.7c-5.5-0.1-9.7-4.5-9.7-9.9c0.1-5.5,4.5-9.7,9.9-9.7
	C43.5,64.7,47.7,69,47.7,74.5"/>
<path class="st1" d="M152.8,28.5c-0.2,15.3-12.6,27.5-27.9,27.3c-15.3-0.2-27.4-12.6-27.3-27.9c0.2-15.3,12.6-27.5,27.9-27.3
	C140.8,0.7,153,13.2,152.8,28.5"/>
<path class="st2" d="M137.4,35.6c-0.1,6.8-5.7,12.2-12.4,12.1c-6.8-0.1-12.2-5.7-12.1-12.4c0.1-6.8,5.7-12.2,12.4-12.1
	C132,23.3,137.4,28.9,137.4,35.6"/>
<path class="st3" d="M109.2,88.8c51.1-7.1,44.7,33.4,10.5,43.3c-10.1,2.9-19,4.3-34.3,2.8C36.9,130.4,39,89.6,72.1,91.1L109.2,88.8z
	"/>
</svg>
