<?xml version="1.0" encoding="utf-8"?>
<!-- Generator: Adobe Illustrator 21.0.2, SVG Export Plug-In . SVG Version: 6.00 Build 0)  -->
<svg version="1.1" id="レイヤー_1" xmlns="http://www.w3.org/2000/svg" xmlns:xlink="http://www.w3.org/1999/xlink" x="0px"
	 y="0px" viewBox="0 0 200 200" style="enable-background:new 0 0 200 200;" xml:space="preserve" width="200" height="200">
<style type="text/css">
	.st0{fill:#FFFFFF;}
	.st1{fill:none;stroke:#040000;stroke-width:1.2735;stroke-linecap:round;stroke-linejoin:round;}
	.st2{fill:#FC2B2B;}
	.st3{fill:#6ABEEC;}
	.st4{fill:#9B0537;}
	.st5{fill:none;stroke:#040000;stroke-width:3;stroke-linecap:round;stroke-linejoin:round;}
</style>
<path class="st0" d="M59,67.5c-0.1,12-10,21.7-22.1,21.5c-12.1-0.1-21.7-10-21.5-22.1c0.1-12.1,10-21.7,22.1-21.5
	C49.5,45.5,59.2,55.4,59,67.5"/>
<path class="st1" d="M46.9,68.3c1.7,5.1-1,10.5-6,12.3c-5.1,1.7-10.5-1-12.3-6"/>
<path class="st0" d="M153.4,29.1c-0.2,15.1-12.5,27.2-27.6,27s-27.2-12.5-27-27.6c0.2-15.1,12.5-27.2,27.6-27
	C141.4,1.6,153.5,14,153.4,29.1"/>
<path class="st1" d="M139.9,31.9c2.3,6.3-1,13.3-7.3,15.6s-13.3-1-15.6-7.3"/>
<path class="st2" d="M185,113c-0.1,9.4,1.2,18.8-1.6,27.2c-2.9,8.7-9.8,15.4-15.1,22.6c-5.4,7.3-10.3,15.2-17.7,20.4
	c-7.3,5.2-15.6,10.1-24.3,12.8c-8.5,2.6-17.9,1.6-27.2,1.5c-9.4-0.1-18.2-1.2-26.5-4c-8.7-2.9-17-6.7-24.1-12.2
	c-7.3-5.4-13.7-12-18.9-19.4c-5.2-7.3-8.8-15.7-11.5-24.5c-2.6-8.5-4-17.3-3.9-26.6c0.1-9.4,2.9-17.7,5.8-26.1
	c2.9-8.7,6.5-16.6,12-23.8c5.4-7.3,11.2-14.1,18.6-19.4C57.9,36.3,66.2,32.7,75,30c8.5-2.6,17.3-4.9,26.5-4.8
	c9.4,0.1,17.8,3.4,26.2,6.2c8.7,2.9,17.1,6,24.4,11.3c7.3,5.4,14.2,11.5,19.5,18.9c5.2,7.3,8.4,16,11.1,24.7
	C184.9,94.9,185.3,103.7,185,113"/>
<path class="st3" d="M156.5,68.6c-0.1,8.4,6.6,15.3,15,15.4s15.3-6.6,15.4-15S172,42.5,172,42.5S156.7,60.2,156.5,68.6"/>
<path class="st3" d="M13,149.9c-0.1,8.4,6.6,15.3,15,15.4c8.4,0.1,15.3-6.6,15.4-15c0.1-8.4-14.9-26.5-14.9-26.5
	S13.1,141.5,13,149.9"/>
<path class="st3" d="M135.7,183.5c-0.1,8.4,6.6,15.3,15,15.4c8.4,0.1,15.3-6.6,15.4-15c0.1-8.4-14.9-26.5-14.9-26.5
	S135.8,175.1,135.7,183.5"/>
<path class="st4" d="M118.5,130.3c0,4.3-3.6,7.8-7.9,7.8L85,137.8c-4.3,0-7.8-3.6-7.8-7.9l0.4-38.8c0-4.3,3.6-7.8,7.9-7.7l25.4,0.3
	c4.3,0,7.8,3.6,7.7,7.9L118.5,130.3z"/>
<path class="st0" d="M59,67.5c-0.1,12-10,21.7-22.1,21.5c-12.1-0.1-21.7-10-21.5-22.1c0.1-12.1,10-21.7,22.1-21.5
	C49.5,45.5,59.2,55.4,59,67.5"/>
<path class="st5" d="M46.9,68.3c1.7,5.1-1,10.5-6,12.3c-5.1,1.7-10.5-1-12.3-6"/>
<path class="st0" d="M153.4,29.1c-0.2,15.1-12.5,27.2-27.6,27s-27.2-12.5-27-27.6c0.2-15.1,12.5-27.2,27.6-27
	C141.4,1.6,153.5,14,153.4,29.1"/>
<path class="st5" d="M139.9,31.9c2.3,6.3-1,13.3-7.3,15.6s-13.3-1-15.6-7.3"/>
</svg>
