<?xml version="1.0" encoding="utf-8"?>
<!-- Generator: Adobe Illustrator 21.0.2, SVG Export Plug-In . SVG Version: 6.00 Build 0)  -->
<svg version="1.1" id="レイヤー_1" xmlns="http://www.w3.org/2000/svg" xmlns:xlink="http://www.w3.org/1999/xlink" x="0px"
	 y="0px" viewBox="0 0 200 200" style="enable-background:new 0 0 200 200;" xml:space="preserve" width="200" height="200">
<style type="text/css">
	.st0{fill:#005BB5;}
	.st1{fill:#FFFFFF;}
	.st2{fill:none;stroke:#040000;stroke-width:3;stroke-linecap:round;stroke-linejoin:round;}
	.st3{fill:none;stroke:#D61442;stroke-width:5;stroke-linecap:round;stroke-linejoin:round;}
	.st4{fill:none;stroke:#005BB5;stroke-width:3;}
</style>
<path class="st0" d="M176.6,105.9c-0.5,42.9-35.7,77.4-78.8,76.9C54.9,182.3,20.5,147,20.9,104c0.5-42.9,35.7-77.4,78.8-76.9
	C142.7,27.6,177.1,62.8,176.6,105.9"/>
<path class="st1" d="M57,64.7c-0.1,11-9,19.5-19.8,19.4S17.6,75,17.8,64.2c0.1-10.8,9.1-19.5,19.9-19.4C48.4,45,57.1,53.9,57,64.7"
	/>
<path class="st2" d="M46.1,65.5c1.5,4.6-0.8,9.5-5.4,11.1c-4.6,1.5-9.5-0.8-11.1-5.4"/>
<path class="st1" d="M141.9,30c-0.1,13.6-11.3,24.5-24.9,24.3C103.5,54.2,92.5,43,92.8,29.4C92.9,15.8,104.1,5,117.7,5.1
	C131.2,5.3,142.2,16.5,141.9,30"/>
<path class="st2" d="M129.8,32.7c2,5.6-0.9,11.9-6.6,14c-5.6,2-11.9-0.9-14-6.6"/>
<path class="st3" d="M43.9,133.6c3.5-4.8,8.1,0.7,13.2-4.7c2.4-2.5,0.5-10.3,3.8-13.4c2.8-2.5,10.3,0.4,13.8-2.2
	c3.1-2.4,2.6-10.3,6.1-12.5c3.3-2,10.1,2.2,13.9,0.5c3.5-1.6,4.8-9.6,8.7-10.8c3.8-1.2,9.3,4.6,13.3,3.9c3.9-0.7,7.3-8,11.3-8
	c3.9-0.1,7.5,7.1,11.6,7.6c3.9,0.5,9.2-5.4,13.2-4.4c3.8,1.1,5.2,8.9,8.9,10.6"/>
<path class="st4" d="M155.4,30c4.7,3.8-1.1,8,4.1,13.4c2.4,2.5,10.3,0.8,13.2,4.4c2.4,2.9-0.7,10.2,1.6,13.8
	c2.1,3.2,10.2,2.9,12.2,6.6c1.9,3.4-2.6,10-1.1,13.9c1.5,3.6,9.4,5.2,10.5,9.2c1.1,3.8-4.9,9.1-4.5,13.2c0.5,3.9,7.6,7.5,7.5,11.6
	c-0.1,3.9-7.4,7.2-8.1,11.3c-0.7,3.9,5.1,9.4,3.8,13.4c-1.2,3.6-9.2,4.7-11.1,8.5"/>
<path class="st4" d="M4,84.7c-1.2,5.9,5.9,5.5,5.4,12.9C9.2,101,2,104.9,2,109.4c0,3.8,7.2,7.4,7.5,11.6c0.4,3.9-6,8.8-5.2,12.9
	c0.7,3.9,8.5,6,9.6,10c1.2,3.8-3.9,10-2.2,13.8c1.6,3.6,9.6,3.8,11.9,7.3c2.1,3.3-1.1,10.7,1.6,13.8c2.6,2.9,10.2,0.8,13.4,3.5
	c2.9,2.5,2.1,10.5,5.6,12.7c3.3,2,10.1-2.2,13.9-0.5"/>
</svg>
