<?xml version="1.0" encoding="utf-8"?>
<!-- Generator: Adobe Illustrator 21.0.2, SVG Export Plug-In . SVG Version: 6.00 Build 0)  -->
<svg version="1.1" id="レイヤー_1" xmlns="http://www.w3.org/2000/svg" xmlns:xlink="http://www.w3.org/1999/xlink" x="0px"
	 y="0px" viewBox="0 0 200 200" style="enable-background:new 0 0 200 200;" xml:space="preserve" width="200" height="200">
<style type="text/css">
	.st0{fill:#029af7;}
	.st1{fill:#FFFFFF;}
	.st2{fill:#040000;}
	.st3{fill:#D61442;}
	.st4{fill:none;stroke:#76CBFF;stroke-width:3;}
</style>
<g>
	<path class="st0" d="M175.2,113.8c-0.6,48.4-40.3,87.1-88.7,86.6C38.2,199.8-0.6,160.1,0,111.7s40.3-87.1,88.7-86.6
		C137,25.8,175.8,65.5,175.2,113.8"/>
	<path class="st1" d="M45.1,67.1C45,79.4,34.9,89.1,22.6,89c-12.2-0.1-22-10.2-21.9-22.5s10.2-22,22.5-21.9
		C35.5,44.9,45.2,54.8,45.1,67.1"/>
	<path class="st2" d="M35.3,74.4c-0.1,5.4-4.6,9.8-10,9.7s-9.7-4.6-9.7-10c0.1-5.4,4.6-9.7,10-9.7S35.4,68.9,35.3,74.4"/>
	<path class="st1" d="M140.8,28.1c-0.2,15.3-12.8,27.5-28.1,27.4c-15.3-0.2-27.5-12.8-27.4-28.1C85.5,12.1,98-0.1,113.4,0
		C128.7,0.2,141,12.8,140.8,28.1"/>
	<path class="st2" d="M125.3,35.3c-0.1,6.8-5.6,12.2-12.4,12.2c-6.8-0.1-12.2-5.6-12.2-12.4c0.1-6.8,5.6-12.2,12.4-12.2
		C119.9,23,125.4,28.5,125.3,35.3"/>
	<path class="st3" d="M108.2,131.4c0,4.5-3.7,8-8.1,7.8L74.4,139c-4.5,0-8-3.6-7.8-8.1L67,91.6c0-4.3,3.7-8,8.1-7.8l25.9,0.4
		c4.3,0,8,3.6,7.8,8.1L108.2,131.4z"/>
</g>
<path class="st4" d="M156.2,32c4.6,3.6-1.1,7.7,4,12.8c2.3,2.3,10,0.8,12.6,4.2c2.2,2.8-0.7,9.8,1.5,13.2c2.1,3,9.8,2.8,11.7,6.3
	c1.8,3.3-2.6,9.6-1.1,13.2c1.4,3.5,9,5,10.1,8.8c0.9,3.6-4.8,8.7-4.3,12.6c0.5,3.7,7.4,7.3,7.3,11.2c-0.1,3.7-7.1,6.9-7.8,10.8
	c-0.7,3.6,4.8,9,3.6,12.9c-1.2,3.5-8.8,4.6-10.5,8.2"/>
</svg>
