<?xml version="1.0" encoding="utf-8"?>
<!-- Generator: Adobe Illustrator 21.0.2, SVG Export Plug-In . SVG Version: 6.00 Build 0)  -->
<svg version="1.1" id="レイヤー_1" xmlns="http://www.w3.org/2000/svg" xmlns:xlink="http://www.w3.org/1999/xlink" x="0px"
	 y="0px" viewBox="0 0 200 200" style="enable-background:new 0 0 200 200;" xml:space="preserve" width="200" height="200">
<style type="text/css">
	.st0{fill:#D61742;}
	.st1{fill:#6ABEEC;}
	.st2{fill:#5B0526;}
	.st3{fill:#FFFFFF;}
	.st4{fill:none;stroke:#040000;stroke-width:3;stroke-linecap:round;stroke-linejoin:round;}
</style>
<path class="st0" d="M190.6,112.3c-0.1,9.3,0.9,19.4-2,27.8c-3,8.7-6,19-11.4,26.2s-11.4,17.5-18.7,22.8c-7.4,5.2-19.9,4.3-28.7,7
	c-8.5,2.6-18-7.1-27.4-7.2s-19.1,9.4-27.5,6.6c-8.7-3-19.8-4.3-27-9.7s-13.3-14.5-18.6-22c-5.2-7.4-2.9-18.9-5.6-27.7
	c-2.6-8.5-15.5-16.7-15.4-26S21.2,92.7,24,84.3c3-8.7,7.5-15.5,12.9-22.8s8-17.4,15.4-22.6c7.2-5.2,15.9-9.8,24.7-12.4
	c8.5-2.6,18.2-4.4,27.5-4.3s17.7,5.9,26.1,8.7c8.7,3,11,13.9,18.3,19.3c7.2,5.4,22.4,1.7,27.6,9.2c5.2,7.4,12.1,15.5,14.8,24.4
	C193.8,92.3,190.7,102.9,190.6,112.3"/>
<path class="st1" d="M159.9,67.6c-0.2,8.4,6.6,15.4,15,15.4c8.4,0.1,15.3-6.7,15.4-15.1c0.1-8.4-14.9-26.6-14.9-26.6
	S160,59.2,159.9,67.6"/>
<path class="st1" d="M15.8,149.3c-0.1,8.4,6.7,15.4,15.1,15.4c8.4,0.1,15.3-6.7,15.4-15.1S31.4,123,31.4,123S15.9,140.8,15.8,149.3"
	/>
<path class="st1" d="M138.9,183c-0.1,8.4,6.7,15.4,15.1,15.4c8.4,0.1,15.3-6.7,15.4-15.1c0.1-8.4-14.9-26.6-14.9-26.6
	S139.1,174.5,138.9,183"/>
<path class="st2" d="M121.1,167.5c0,4.4-3.7,7.8-7.9,7.8L87.7,175c-4.4,0-7.8-3.7-7.8-8L81,76.5c0-4.4,3.7-7.8,8-7.8l25.5,0.3
	c4.4,0,7.8,3.7,7.8,7.9L121.1,167.5z"/>
<path class="st3" d="M61.2,66.4C61.1,78.6,51.2,88.3,39,88c-12-0.1-21.8-10.1-21.6-22.2c0.1-12,10.1-21.8,22.2-21.6
	S61.5,54.4,61.2,66.4"/>
<path class="st4" d="M49.2,67.3c1.7,5.1-0.9,10.6-6,12.4c-5.1,1.7-10.6-0.9-12.3-6"/>
<path class="st3" d="M155.8,27.9c-0.2,15.2-12.5,27.2-27.7,27c-15.2-0.2-27.2-12.6-27-27.7c0.2-15.2,12.6-27.2,27.7-27
	C143.9,0.3,156.1,12.7,155.8,27.9"/>
<path class="st4" d="M142.4,30.8c2.3,6.3-1,13.2-7.4,15.5c-6.3,2.3-13.2-1-15.5-7.4"/>
</svg>
